<svg width="200" height="200" viewBox="0 0 200 200" xmlns="http://www.w3.org/2000/svg">
  <defs>
    <linearGradient id="juliaGradient" x1="0%" y1="0%" x2="100%" y2="100%">
      <stop offset="0%" style="stop-color:#4676B8;stop-opacity:1" />
      <stop offset="33%" style="stop-color:#389826;stop-opacity:1" />
      <stop offset="66%" style="stop-color:#9558B2;stop-opacity:1" />
      <stop offset="100%" style="stop-color:#CB3C33;stop-opacity:1" />
    </linearGradient>
  </defs>

  <circle cx="100" cy="100" r="50" fill="url(#juliaGradient)"/>

  <g transform="translate(100, 100)">
    <g id="rays">
      <rect x="-5" y="-70" width="10" height="20" fill="url(#juliaGradient)" transform="rotate(0)"/>
      <rect x="-5" y="-70" width="10" height="20" fill="url(#juliaGradient)" transform="rotate(30)"/>
      <rect x="-5" y="-70" width="10" height="20" fill="url(#juliaGradient)" transform="rotate(60)"/>
      <rect x="-5" y="-70" width="10" height="20" fill="url(#juliaGradient)" transform="rotate(90)"/>
      <rect x="-5" y="-70" width="10" height="20" fill="url(#juliaGradient)" transform="rotate(120)"/>
      <rect x="-5" y="-70" width="10" height="20" fill="url(#juliaGradient)" transform="rotate(150)"/>
      <rect x="-5" y="-70" width="10" height="20" fill="url(#juliaGradient)" transform="rotate(180)"/>
      <rect x="-5" y="-70" width="10" height="20" fill="url(#juliaGradient)" transform="rotate(210)"/>
      <rect x="-5" y="-70" width="10" height="20" fill="url(#juliaGradient)" transform="rotate(240)"/>
      <rect x="-5" y="-70" width="10" height="20" fill="url(#juliaGradient)" transform="rotate(270)"/>
      <rect x="-5" y="-70" width="10" height="20" fill="url(#juliaGradient)" transform="rotate(300)"/>
      <rect x="-5" y="-70" width="10" height="20" fill="url(#juliaGradient)" transform="rotate(330)"/>
    </g>
  </g>
  </svg>
